<?xml version="1.0" encoding="UTF-8" standalone="no"?>
<svg
   xmlns:dc="http://purl.org/dc/elements/1.1/"
   xmlns:cc="http://creativecommons.org/ns#"
   xmlns:rdf="http://www.w3.org/1999/02/22-rdf-syntax-ns#"
   xmlns:svg="http://www.w3.org/2000/svg"
   xmlns="http://www.w3.org/2000/svg"
   id="svg4"
   xml:space="preserve"
   viewBox="0 0 1024 768"
   y="0px"
   x="0px"
   version="1.1"><metadata
     id="metadata10"><rdf:RDF><cc:Work
         rdf:about=""><dc:format>image/svg+xml</dc:format><dc:type
           rdf:resource="http://purl.org/dc/dcmitype/StillImage" /></cc:Work></rdf:RDF></metadata><defs
     id="defs8" /><path
     id="path2"
     d="m292.3 362.49c-11.534 0-20.916 9.6214-20.916 21.514 0 11.892 9.3824 21.514 20.916 21.514s20.916-9.6214 20.916-21.514c0-11.892-9.3824-21.514-20.916-21.514zm461.13 0c-11.534 0-20.916 9.6214-20.916 21.514 0 11.892 9.3824 21.514 20.916 21.514 10.159 0 18.645-7.4705 20.498-17.391 0.11952-0.53784 0.23907-1.3731 0.29883-2.2695 0.0598-1.4342-1.0755-2.6309-2.5098-2.6309-1.3147 0-2.3895 0.95676-2.4492 2.2715-0.11952 0.95616-0.23985 2.0313-0.35937 2.6289-1.7928 7.1712-8.0683 12.49-15.479 12.49-8.7847 0-15.955-7.47-15.955-16.613 0-9.1433 7.1704-16.553 15.955-16.553 5.8565 0 10.937 3.2266 13.746 8.127 0.41832 0.77688 1.254 1.2539 2.1504 1.2539 1.9123 0 3.1085-2.0318 2.1523-3.7051-3.6454-6.3943-10.34-10.637-18.049-10.637zm-330.73 0.58984c-0.0913-0.002-0.18202 0.00015-0.27539 0.008-1.255 0.11952-2.2129 1.3154-2.2129 2.5703v31.254l-15.238-21.812c-0.41832-0.65736-1.1958-1.0762-1.9727-1.0762-1.7928 0.0598-2.8675 2.0919-1.8516 3.5859l18.107 25.936c0.5976 0.83664 1.5532 1.375 2.6289 1.375 1.7928 0 3.2871-1.4338 3.2871-3.2266v-36.17c0-1.3446-1.1038-2.4255-2.4727-2.457zm182.51 0c-0.0913-0.002-0.18398 0.00015-0.27735 0.008-1.255 0.11952-2.2109 1.3154-2.2109 2.5703v31.254l-15.238-21.812c-0.41832-0.65736-1.1958-1.0762-1.9726-1.0762-1.7928 0.0598-2.8675 2.0919-1.8516 3.5859l18.107 25.936c0.5976 0.83664 1.5532 1.375 2.6289 1.375 1.7928 0 3.2871-1.4338 3.2871-3.2266v-36.17c0-1.3446-1.1038-2.4255-2.4726-2.457zm-400.51 0.008c-1.3147 0-2.4512 1.1345-2.4512 2.4492v36.934c0 1.3147 1.1365 2.4492 2.4512 2.4492 1.3745 0 2.5098-1.1345 2.5098-2.4492v-31.56l15.717 22.172c0.8964 1.3147 2.8087 1.3147 3.7051 0l11.713-16.494c1.0757-1.494-0.00018-3.5262-1.793-3.5859-0.71712 0-1.5543 0.47857-1.9727 1.0762l-9.7988 13.805-16.854-23.785c-0.47808-0.5976-1.1946-1.0156-2.0312-1.0156zm40.158 0c-1.3745 0-2.5098 1.1345-2.5098 2.4492v36.934c0 1.3147 1.1353 2.4492 2.5098 2.4492 1.3147 0 2.4512-1.1345 2.4512-2.4492v-36.934c0-1.3147-1.1364-2.4492-2.4512-2.4492zm105.25 0c-1.0757 0-1.9723 0.65713-2.3906 1.6133l-15.059 36.693c-0.65736 1.5537 0.41735 3.3461 2.1504 3.5254h18.168c1.3745 0 2.4492-1.1345 2.4492-2.4492 0-1.3745-1.0747-2.5117-2.4492-2.5117h-14.164l11.176-27.25 0.7168-1.793 0.71679 1.793 12.609 30.598c0.35857 0.95616 1.3149 1.6133 2.3906 1.6133 1.7928 0 3.0472-1.8521 2.3301-3.5254l-14.998-36.693c-0.41832-0.95616-1.3747-1.6133-2.3906-1.6133zm43.984 0c-1.3147 0-2.4492 1.1345-2.4492 2.4492v36.934c0 1.3147 1.1345 2.4492 2.4492 2.4492 1.3745 0 2.5117-1.1345 2.5117-2.4492v-36.934c0-1.3147-1.1372-2.4492-2.5117-2.4492zm71.387 0c-1.0757 0-1.9723 0.65713-2.3906 1.6133l-15.061 36.693c-0.65736 1.5537 0.41931 3.3461 2.1524 3.5254h18.166c1.3745 0 2.4512-1.1345 2.4512-2.4492 0-1.3745-1.0767-2.5117-2.4512-2.5117h-14.162l11.174-27.25 0.71875-1.793 0.7168 1.793 12.609 30.598c0.35856 0.95616 1.315 1.6133 2.3906 1.6133 1.7928 0 3.0472-1.8521 2.3301-3.5254l-15-36.693c-0.4183-0.95616-1.3747-1.6133-2.3906-1.6133zm61.748 0c-1.3147 0-2.4492 1.1345-2.4492 2.4492 0 1.3745 1.1345 2.5117 2.4492 2.5117h21.275c1.3745 0 2.5098-1.1372 2.5098-2.5117 0-1.3147-1.1353-2.4492-2.5098-2.4492zm49.375 0c-1.3147 0-2.4492 1.1345-2.4492 2.4492v36.934c0 1.3147 1.1345 2.4492 2.4492 2.4492 1.3745 0 2.5098-1.1345 2.5098-2.4492v-36.934c0-1.3147-1.1353-2.4492-2.5098-2.4492zm58.059 0c-1.3147 0-2.4492 1.1345-2.4492 2.4492 0 1.3745 1.1345 2.5117 2.4492 2.5117h21.275c1.3745 0 2.5098-1.1372 2.5098-2.5117 0-1.3147-1.1353-2.4492-2.5098-2.4492zm48.359 0c-1.3147 0-2.4512 1.1345-2.4512 2.4492 0 1.3745 1.1364 2.5117 2.4512 2.5117h14.939c4.0637 0 7.4102 3.286 7.4102 7.3496 0 4.0637-3.3465 7.4102-7.4102 7.4102h-14.939c-1.3147 0-2.3914 1.0154-2.4512 2.3301v17.332c0 1.3147 1.1364 2.4492 2.4512 2.4492 1.3745 0 2.5098-1.1345 2.5098-2.4492v-14.701h12.43c6.8126 0 12.371-5.5585 12.371-12.371 0-6.7529-5.5585-12.311-12.371-12.311zm111.28 0c-1.8526 0-2.9288 2.0322-1.9726 3.5859l6.5742 10.158c0.41832 0.7171 1.1938 1.0762 1.9707 1.0762 1.8526 0 2.9886-2.0322 1.9726-3.5859l-6.5723-10.158c-0.41832-0.65736-1.1372-1.0762-1.9141-1.0762zm25.1 0c-0.77688 0-1.5543 0.41765-1.9726 1.1348l-13.03 21.16v17.211c0 1.3147 1.0154 2.3301 2.3301 2.3301h0.29882c1.255 0 2.3301-1.0154 2.3301-2.3301v-17.21l0.29882-0.47852 11.713-18.227c1.0159-1.5538-0.11815-3.5859-1.9707-3.5859zm-527.1 4.3633c8.7847 0 15.955 7.4095 15.955 16.553 0 9.1433-7.1704 16.553-15.955 16.553-8.7847 0-15.957-7.4095-15.957-16.553 0-9.1433 7.1723-16.553 15.957-16.553zm234.93 13.266c-1.3147 0-2.4492 1.1353-2.4492 2.5098v19.244c0 1.3147 1.1345 2.4492 2.4492 2.4492h21.275c1.3745 0 2.5098-1.1345 2.5098-2.4492 0-1.3745-1.1353-2.5117-2.5098-2.5117h-18.766v-14.281h15.539c1.3745 0 2.5098-1.0767 2.5098-2.4512s-1.1353-2.5098-2.5098-2.5098zm107.43 0c-1.3147 0-2.4492 1.1353-2.4492 2.5098v19.244c0 1.3147 1.1345 2.4492 2.4492 2.4492h21.275c1.3745 0 2.5098-1.1345 2.5098-2.4492 0-1.3745-1.1353-2.5117-2.5098-2.5117h-18.766v-14.281h15.537c1.3745 0 2.5117-1.0767 2.5117-2.4512s-1.1372-2.5098-2.5117-2.5098zm119.66 2.5098c-1.3745 0-2.5098 1.0767-2.5098 2.4512s1.1353 2.4492 2.5098 2.4492h8.1875c1.3745 0 2.4512-1.0747 2.4512-2.4492s-1.0767-2.4512-2.4512-2.4512zm-52.66 8.0684c-1.9123 0-3.048 2.0322-2.0918 3.5859l5.1992 8.8438c0.41832 0.71712 1.1946 1.1953 2.0312 1.1953 1.9123 0 3.048-2.031 2.0918-3.6445l-5.1992-8.7852c-0.41832-0.77688-1.1946-1.1953-2.0312-1.1953z"
     fill="#ffffff" /></svg>